<?xml version="1.0" encoding="utf-8"?>
<!-- Generator: Adobe Illustrator 22.1.0, SVG Export Plug-In . SVG Version: 6.00 Build 0)  -->
<svg version="1.1" id="Layer_1" xmlns="http://www.w3.org/2000/svg" xmlns:xlink="http://www.w3.org/1999/xlink" x="0px" y="0px"
	 viewBox="0 0 240.9 153.1" style="enable-background:new 0 0 240.9 153.1;" xml:space="preserve">
<style type="text/css">
	.st0{fill-rule:evenodd;clip-rule:evenodd;fill:#91BD5B;}
</style>
<path class="st0" d="M102.2,39c1.8,4.4,1,6.5-2.1,8.6c-5.3,3.7-10.5,7.7-15,12.3c-5.2,5.2-7,12-5.4,19.3c1,4.7,3.4,5.7,8.1,4.8
	c3.8-0.7,7.9-1.6,11.6-0.9c5.7,1.1,9.2,5.4,10.3,11c1.1,6-0.2,11.5-5.5,15.6c-13.3,10.2-33.5,1.7-37.4-16.3
	C63,75.5,70.1,61.1,83.8,50C89.2,45.5,95.8,42.7,102.2,39z"/>
<path class="st0" d="M149.6,40.1c1.4,3.6,0.2,5.6-2.7,7.6c-5.3,3.7-10.5,7.7-14.9,12.3c-5.1,5.3-6.9,12.1-5.2,19.4
	c0.9,4.2,3.6,5.7,7.8,4.6c3.2-0.8,6.6-1.9,9.7-1.5c6.3,0.8,10.5,4.8,12.3,10.9c1.8,6.2-0.5,12.7-5.6,16.4
	c-13.3,9.9-32.9,1.4-37.2-16.2c-2.3-9.5-0.8-18.5,3.4-27.1C123.4,53.9,136.1,43.4,149.6,40.1z"/>
</svg>
